<svg xmlns="http://www.w3.org/2000/svg" version="1.1" xmlns:xlink="http://www.w3.org/1999/xlink" xmlns:svgjs="http://svgjs.dev/svgjs" width="2000" height="1247" viewBox="0 0 2000 1247"><g transform="matrix(1,0,0,1,-1.2121212121212466,0.504858299595071)"><svg viewBox="0 0 396 247" data-background-color="#1b4242" preserveAspectRatio="xMidYMid meet" height="1247" width="2000" xmlns="http://www.w3.org/2000/svg" xmlns:xlink="http://www.w3.org/1999/xlink"><g id="tight-bounds" transform="matrix(1,0,0,1,0.2400000000000091,-0.09999999999999432)"><svg viewBox="0 0 395.52 247.2" height="247.2" width="395.52"><g><svg></svg></g><g><svg viewBox="0 0 395.52 247.2" height="247.2" width="395.52"><g transform="matrix(1,0,0,1,75.54432,83.80346128885519)"><svg viewBox="0 0 244.43135999999998 79.59307742228961" height="79.59307742228961" width="244.43135999999998"><g><svg viewBox="0 0 244.43135999999998 79.59307742228961" height="79.59307742228961" width="244.43135999999998"><g><svg viewBox="0 0 244.43135999999998 79.59307742228961" height="79.59307742228961" width="244.43135999999998"><g><svg viewBox="0 0 244.43135999999998 79.59307742228961" height="79.59307742228961" width="244.43135999999998"><g id="textblocktransform"><svg viewBox="0 0 244.43135999999998 79.59307742228961" height="79.59307742228961" width="244.43135999999998" id="textblock"><g><svg viewBox="0 0 244.43135999999998 79.59307742228961" height="79.59307742228961" width="244.43135999999998"><g transform="matrix(1,0,0,1,0,0)"><svg width="244.43135999999998" viewBox="3 -32.98 128.8 41.94" height="79.59307742228961" data-palette-color="#5c8374"><g class="wordmark-text-0" data-fill-palette-color="primary" id="text-0"><path d="M5.62 0.07Q3 0.07 3-1.29L3-1.29 3-28.66Q3-29.57 3.42-29.97 3.83-30.37 4.74-30.37L4.74-30.37 13.87-30.37Q17.92-30.37 21.04-28.39 24.17-26.42 24.17-20.87L24.17-20.87Q24.17-17.07 22.36-14.95 20.56-12.84 18.3-12.11 16.04-11.38 14.28-11.38L14.28-11.38 9.69-11.38 9.69-1.29Q9.69 0.07 7.08 0.07L7.08 0.07 5.62 0.07ZM9.69-17.11L13.55-17.11Q15.11-17.11 16.22-17.94 17.33-18.77 17.33-20.87L17.33-20.87Q17.33-23 16.21-23.85 15.09-24.71 13.55-24.71L13.55-24.71 9.69-24.71 9.69-17.11ZM33.84 0.37Q30.73 0.37 29.11-1.38 27.49-3.13 27.49-6.69L27.49-6.69 27.49-31.32Q27.49-32.74 30.1-32.74L30.1-32.74 31.32-32.74Q32.66-32.74 33.29-32.39 33.91-32.03 33.91-31.32L33.91-31.32 33.91-6.62Q33.91-5.62 34.27-5.18 34.64-4.74 35.5-4.74L35.5-4.74Q35.72-4.74 36.15-4.83L36.15-4.83Q36.28-4.86 36.4-4.88 36.52-4.91 36.67-4.91L36.67-4.91Q37.03-4.91 37.34-4.26 37.64-3.61 37.81-2.82 37.99-2.03 37.99-1.78L37.99-1.78Q37.99 0.37 33.84 0.37L33.84 0.37ZM45.92 0.37Q42.6 0.37 41.05-1.38 39.5-3.13 39.5-6.01L39.5-6.01Q39.5-8.18 40.4-9.92 41.3-11.67 44.06-12.87 46.82-14.06 51.95-14.06L51.95-14.06 51.95-15.5Q51.95-16.77 51.14-17.38 50.34-17.99 48.58-17.99L48.58-17.99Q47.11-17.99 46.06-17.69 45.01-17.38 43.79-16.87L43.79-16.87Q43.16-16.58 43.01-16.58L43.01-16.58Q42.57-16.58 42.05-17.24 41.52-17.9 41.13-18.75 40.74-19.6 40.74-20.04L40.74-20.04Q40.74-20.8 41.83-21.5 42.91-22.19 44.82-22.62 46.72-23.05 49.04-23.05L49.04-23.05Q53.93-23.05 56.15-21.11 58.37-19.17 58.37-15.8L58.37-15.8 58.37-7.67Q58.37-5.64 58.48-4.52 58.59-3.39 58.78-2.29L58.78-2.29Q58.91-1.64 58.91-1.37L58.91-1.37Q58.91-0.88 57.99-0.56 57.08-0.24 55.9-0.1 54.73 0.05 54.02 0.05L54.02 0.05Q53.27 0.05 52.94-0.6 52.61-1.25 52.41-2.37L52.41-2.37Q52.39-2.51 52.36-2.66 52.34-2.81 52.29-2.95L52.29-2.95Q52.05-2.49 51.25-1.71 50.46-0.93 49.09-0.28 47.72 0.37 45.92 0.37L45.92 0.37ZM48.04-4.74Q49.26-4.74 50.34-5.51 51.41-6.27 51.95-7.47L51.95-7.47 51.95-9.86Q45.87-9.86 45.87-6.67L45.87-6.67Q45.87-5.81 46.44-5.27 47.02-4.74 48.04-4.74L48.04-4.74ZM66.62 0.07Q64.03 0.07 64.03-1.29L64.03-1.29 64.03-15.06Q64.03-18.19 63.62-20.26L63.62-20.26Q63.49-20.92 63.49-21.19L63.49-21.19Q63.49-21.68 64.41-21.98 65.32-22.29 66.48-22.44 67.64-22.58 68.35-22.58L68.35-22.58Q69.11-22.58 69.41-22.02 69.72-21.46 69.96-20.39L69.96-20.39 70.11-19.75Q71.14-21.12 72.86-22.08 74.58-23.05 76.56-23.05L76.56-23.05Q79.83-23.05 81.39-21.34 82.95-19.63 82.95-16.04L82.95-16.04 82.95-1.29Q82.95 0.07 80.31 0.07L80.31 0.07 79.12 0.07Q76.53 0.07 76.53-1.29L76.53-1.29 76.53-15.06Q76.53-16.38 75.91-17.07 75.29-17.75 73.89-17.75L73.89-17.75Q72.72-17.75 71.82-16.97 70.92-16.19 70.45-15.23L70.45-15.23 70.45-1.29Q70.45 0.07 67.81 0.07L67.81 0.07 66.62 0.07ZM90.66-26.44Q89.3-26.44 88.67-26.78 88.05-27.12 88.05-27.83L88.05-27.83 88.05-31.32Q88.05-32.03 88.69-32.39 89.32-32.74 90.66-32.74L90.66-32.74 91.86-32.74Q93.2-32.74 93.84-32.39 94.47-32.03 94.47-31.32L94.47-31.32 94.47-27.83Q94.47-27.12 93.85-26.78 93.23-26.44 91.86-26.44L91.86-26.44 90.66-26.44ZM90.66 0.07Q88.05 0.07 88.05-1.29L88.05-1.29 88.05-21.41Q88.05-22.09 88.69-22.44 89.32-22.78 90.66-22.78L90.66-22.78 91.86-22.78Q93.2-22.78 93.84-22.44 94.47-22.09 94.47-21.41L94.47-21.41 94.47-1.29Q94.47 0.07 91.86 0.07L91.86 0.07 90.66 0.07ZM103.01 0.07Q100.43 0.07 100.43-1.29L100.43-1.29 100.43-17.63 99.65-17.63Q98.96-17.63 98.66-18.14 98.35-18.65 98.35-19.8L98.35-19.8 98.35-20.53Q98.35-21.68 98.66-22.19 98.96-22.71 99.65-22.71L99.65-22.71 100.43-22.71 100.43-25.95Q100.43-32.98 106.77-32.98L106.77-32.98Q111.1-32.98 111.1-30.86L111.1-30.86Q111.1-30.59 110.91-29.81 110.73-29.03 110.42-28.38 110.12-27.73 109.73-27.73L109.73-27.73Q109.51-27.73 109.19-27.81L109.19-27.81Q108.7-27.91 108.41-27.91L108.41-27.91Q107.56-27.91 107.2-27.48 106.85-27.05 106.85-26.05L106.85-26.05 106.85-22.71 109.02-22.71Q109.7-22.71 110.01-22.19 110.31-21.68 110.31-20.53L110.31-20.53 110.31-19.8Q110.31-18.65 110.01-18.14 109.7-17.63 109.02-17.63L109.02-17.63 106.85-17.63 106.85-1.29Q106.85 0.07 104.24 0.07L104.24 0.07 103.01 0.07ZM118.56 8.96Q115.95 8.96 115.95 8.03L115.95 8.03Q115.95 7.67 116.12 7.25L116.12 7.25 118.88 0 111.7-21.04Q111.68-21.19 111.61-21.45 111.53-21.7 111.53-21.83L111.53-21.83Q111.53-22.31 112.17-22.55 112.8-22.78 114.17-22.78L114.17-22.78 115.59-22.78Q116.61-22.78 117.23-22.57 117.86-22.36 118-21.88L118-21.88 120.54-13.87Q120.79-13.11 121.15-11.44 121.52-9.77 121.59-9.45L121.59-9.45 121.76-8.62 121.96-8.62Q121.98-8.79 122.08-9.13L122.08-9.13Q122.89-13.04 123.18-13.87L123.18-13.87 125.72-21.88Q125.89-22.39 126.51-22.58 127.13-22.78 128.16-22.78L128.16-22.78 129.21-22.78Q130.55-22.78 131.17-22.55 131.8-22.31 131.8-21.83L131.8-21.83Q131.8-21.58 131.67-21.04L131.67-21.04 121.71 8.03Q121.4 8.96 119.3 8.96L119.3 8.96 118.56 8.96Z" fill="#5c8374" data-fill-palette-color="primary"></path></g></svg></g></svg></g></svg></g></svg></g></svg></g></svg></g></svg></g><g><path d="M245.816 0c68.262 0 123.6 55.338 123.6 123.6 0 68.262-55.338 123.6-123.6 123.6-50.78 0-94.408-30.623-113.424-74.408h3.925c18.785 41.751 60.747 70.82 109.499 70.819 66.28 0 120.011-53.731 120.011-120.011 0-66.28-53.731-120.011-120.011-120.011-48.751 0-90.714 29.069-109.499 70.819l-3.925 0c19.016-43.786 62.644-74.408 113.424-74.408z" fill="#9ec8b9" stroke="transparent" data-fill-palette-color="tertiary"></path></g></svg></g><defs></defs></svg><rect width="395.52" height="247.2" fill="none" stroke="none" visibility="hidden"></rect></g></svg></g></svg>